<?xml version="1.0" encoding="utf-8"?>
<!-- Generator: Adobe Illustrator 26.0.1, SVG Export Plug-In . SVG Version: 6.00 Build 0)  -->
<svg version="1.1" id="Layer_1" xmlns="http://www.w3.org/2000/svg" xmlns:xlink="http://www.w3.org/1999/xlink" x="0px" y="0px"
	 viewBox="0 0 65 73" style="enable-background:new 0 0 65 73;" xml:space="preserve">
<style type="text/css">
	.st0{fill:none;stroke:#D7D1C9;stroke-width:1.25;stroke-linecap:round;stroke-linejoin:round;}
	.st1{fill:#D7D1C9;}
</style>
<g id="Layer_1_00000000207861573685131130000000742082365173630894_">
	<path class="st0" d="M36.1,26.9c8.6,0.7,15.2,4.7,15.2,9.5c0,5.3-8,9.6-17.9,9.6s-17.9-4.3-17.9-9.6s8-9.6,17.9-9.6"/>
	<path class="st1" d="M50.4,39.3c-2.3,3.8-9.1,6.5-17,6.5s-14.6-2.7-17-6.5l0,0c2.4-3.8,9.1-6.5,17-6.5S48,35.4,50.4,39.3L50.4,39.3
		z"/>
	<path class="st0" d="M51.3,36.9c0,0.3,0,0.7,0,1c0,12.4-8,22.4-17.9,22.4s-17.9-10-17.9-22.4c0-0.5,0-0.7,0-1.2"/>
	<path class="st0" d="M15.6,41c-0.8-1.1-2.7-3.3-5.1-2.5c-3.5,1.2-3.8,5.8-2.9,8.5c1.5,4.6,6.3,7.8,11.2,4.2"/>
	<path class="st0" d="M15.6,42.9c-0.8-0.9-2.3-2.1-3.8-2c-2.6,0.3-2.6,3.8-2.1,5.5c0.9,2.8,3.9,4.3,6.6,3.3c0.3-0.1,0.7-0.3,1-0.4"
		/>
	<path class="st0" d="M9.8,46.1c2-1,4.1-1.8,6.3-2.5"/>
	<path class="st0" d="M50.6,44.2c7.8,2.7,12.9,7.1,12.9,12.1c0,8.2-13.9,14.9-31,14.9s-31-6.7-31-14.8c0-3.3,2.3-6.5,6.2-8.9"/>
	<path class="st0" d="M34.8,2.1c0.1-0.1-0.2-0.3-0.3-0.1C32.5,3.2,28,6.6,27.7,10c-0.3,4.1,4.5,8.9,5.9,12.6c1,2.7-0.7,6.5-1.9,8.7
		c-0.1,0.2,0.4,0.4,0.6,0.2c1.8-1.8,4.7-5,5.3-7.9c0.9-4.3-6.6-9.7-5.7-14.8C32.4,6.4,33.4,4.1,34.8,2.1z"/>
</g>
</svg>
