<svg xmlns="http://www.w3.org/2000/svg" xmlns:xlink="http://www.w3.org/1999/xlink" viewBox="0 0 479 265"><defs><style>.cls-1,.cls-2,.cls-5{fill:none;}.cls-2,.cls-4,.cls-6{stroke:#253948;}.cls-2,.cls-5,.cls-6{stroke-linecap:round;stroke-linejoin:round;stroke-width:1.25px;}.cls-3,.cls-4{fill:#253948;}.cls-4{stroke-miterlimit:10;stroke-width:0.25px;}.cls-5{stroke:#fff;}.cls-6{fill:#fff;}.cls-7{clip-path:url(#clip-path);}</style><clipPath id="clip-path"><ellipse class="cls-1" cx="410.19" cy="202.99" rx="17.82" ry="4.62"/></clipPath></defs><g id="Layer_1" data-name="Layer 1"><path class="cls-2" d="M296.06,168.83s0-12.48,11.23-7.48c0,0,8.74-7.49,5-13.73,0,0,7.48,3.74,7.48,11.23,0,0,8.74-1.25,10,7.49,11.23,0,10.56,9.81,8.11,12.17.75,2.47-10.89,4.68-24.34,4.68s-24.34-2.1-24.34-4.68c0,0-1.87-10.92,6.87-9.68"/><path class="cls-2" d="M336.55,227.35c.75,2.48-10.89,4.68-24.34,4.68-1,0-2,0-2.93,0"/><path class="cls-2" d="M335.23,224.71c.75,2.48-10.89,4.68-24.34,4.68-1.15,0-2.29,0-3.4,0"/><path class="cls-2" d="M166.71,88.47s.59,83.38,22.2,82.19c10.52-.57,22-4.7,22.17-11.18.63-19.53-12.42-52-30.3-74.83S166.64,75.93,166.71,88.47Z"/><path class="cls-2" d="M280.46,43.44s-13.31,67.77-30.72,63.49c-8.47-2.08-16.74-4.46-16.32-12.51.84-16.16,18.11-40.46,36.16-56.25S282.43,33.25,280.46,43.44Z"/><path class="cls-2" d="M208.74,17s27.53,72.11,11.5,77c-7.81,2.39-17.48,2-19.8-3.57-7-16.68-8.46-48.32-3.17-72.88S204.59,6.19,208.74,17Z"/><path class="cls-2" d="M167.92,72.83c4.55,11.42,23.19,59.52,32,101.78,6.61,31.68,6.61,44.88,6.61,44.88"/><path class="cls-2" d="M282,31.38S221,109.92,222.36,218.17"/><path class="cls-2" d="M202.14,4.1s17.58,109.78,13.62,215.39"/><line class="cls-2" x1="26.67" y1="140.96" x2="78.45" y2="140.96"/><line class="cls-2" x1="28.32" y1="150.35" x2="83.27" y2="150.35"/><line class="cls-2" x1="29.97" y1="159.75" x2="90.46" y2="159.75"/><line class="cls-2" x1="28.46" y1="169.14" x2="99.24" y2="169.14"/><line class="cls-2" x1="28.52" y1="178.53" x2="115.15" y2="178.53"/><line class="cls-2" x1="28.63" y1="187.92" x2="130.65" y2="187.92"/><line class="cls-2" x1="29.52" y1="197.31" x2="135.51" y2="197.31"/><line class="cls-2" x1="68.11" y1="206.71" x2="135.19" y2="206.71"/><line class="cls-2" x1="29.72" y1="206.71" x2="68.37" y2="206.71"/><path class="cls-3" d="M125.58,52.86s-1.74.64-12.57,14.56c-1.34,1.73-7.92,6.93-21.66,4.64-9.28-1.54-17,4.64-16.25,11.5C76.28,94,78.3,93.16,80.35,100s2.51,5.37.56,13.89-2.9,14-9.09,16.42c-10.25,4-24.07,7.93-24.07,7.93l-9.48,5.63-4.4,6-5.23,10.25-1.37,12.38.37,4.74-18.53-.45-1.1-12,2.25-13.88,4.2-12.75L22.58,126l11-8.79L42.33,110l5.57-7.81,4.15-10,2.13-11,.76-13.5.77-9.39,2.91-8.63,6.43-9.4,6.22-6.14,9.62-4.95,11.37-3.3s13-.63,17.25,0c2.5.36,9.69,2.88,9.69,2.88l10,6.28,7.37,7.27,5.11,8.12,3.17,9.31.45,7.94-3.62-2.75-5.2-.55a39.43,39.43,0,0,1-4.88-3.13C129.71,59.46,125.58,52.86,125.58,52.86Z"/><path class="cls-2" d="M122.21,136.64c-2.45-1-10.72-5.2-8.34-12.17"/><path class="cls-2" d="M114.75,178.26c3.07-5,9.78-17.89,8.91-33.23"/><path class="cls-2" d="M73.09,128.46s14.83,39.77,41.1,49.32c30.54,11.1,21,29.77,18.16,37.4a35.6,35.6,0,0,0-1.08,18.31"/><path class="cls-2" d="M114.88,124.53a26.62,26.62,0,0,0,5,.73c5.25-.22,30.48-20.63,26.19-54.77-.14-1.18-.4-2.56-.71-4"/><path class="cls-2" d="M133.53,62.83c0,.33-5.75,9.12-6.78,17.34s3.54,15.75,5.25,20.55c0,0,2.78,6-3.77,4.34-5.16-1.28-4.45.79-4.45.79l1.49,4.91a.84.84,0,0,1-.8.8c-.8.12-6.91-1.82-7.59-1.59s.11,2.16,5.76,4.79a.63.63,0,0,1,.11,1.14c-.8.68-2.74-.34-2.17,3.2s-.22,12.1-26.48-3.77l-13.19-10"/><path class="cls-2" d="M141.13,75.89a10.74,10.74,0,0,0-10.32,7.82,17.73,17.73,0,0,0-4.4-.51h-.13a14.14,14.14,0,0,0-4,.66,10.75,10.75,0,1,0,.34,3.37,11.16,11.16,0,0,1,3.69-.73,14,14,0,0,1,4.12.51,10.73,10.73,0,1,0,10.71-11.12Z"/><path class="cls-2" d="M126.35,52.25c.51,4.63,4.22,11.47,12.16,11.82,6.88.29,7.19,4.06,7.19,4.06,0-23.71-20.34-42.93-45.44-42.93C76.71,25.2,55.9,42,55.05,63.81c-.59,15.13,1.1,40.37-24.2,55.52C3.79,135.52,8.7,176.75,8.7,176.75l19-.13S24.22,143.87,53,136.45c24.81-6.4,29.05-11.82,27.92-30.76-.23-3.91-.63-6.21-4.52-15C71.7,80,80.28,71.94,86.68,71.83s21.55,2.09,27.63-6.39c6.62-9.25,12-13.19,12-13.19a14.38,14.38,0,0,0,7.18,10.58"/><path class="cls-2" d="M30.35,215.19c.41,5.23,2,22.27,6.07,30.94C41.75,257.52,80.31,268,140,257.07c2.66-.49,2.33-2,10.58,2.23s20.08,4.38,28.56.15S198.81,241,191.72,235c-6.57-5.56-26.7,1.6-28.79-.27-.77-.69-.74-2.15-.71-4-.28-2.84-4.74-4.89-12,3.86-.68.83-2.36,1.17-4.76,1.13l-.38-.06-22-3.43s-41.81-10.06-55-11.06c0,0,.83-12.1.11-19.65"/><path class="cls-2" d="M131.86,215.18H30.23s-1.5-19.51-2.59-38"/><line class="cls-2" x1="130.69" y1="224.47" x2="88.81" y2="224.47"/><path class="cls-2" d="M183.41,232.2c-.8-13.89-22.31-77.17-24.76-88.19-3.09-13.93-11.62-20.57-17-27.85-4.6-6.22-13.92-1.55-6.18,6.19,0,0-9.36,2.23-12.64,11.65-3.5,10,5,16.2,11.27,19.24,3.3,1.61,8.41,3,9.1,10.88,1.42,16.08.27,62.78,0,71.36"/><path class="cls-2" d="M265.82,192.65c14.7.56,26.3,7.14,26.3,15.16,0,8.4-12.69,15.21-28.34,15.21s-28.34-6.81-28.34-15.21c0-8.24,12.24-15,27.5-15.19"/><path class="cls-2" d="M236.9,212.65c3.77-6,14.38-10.37,26.88-10.37s23.1,4.35,26.87,10.37"/><path class="cls-3" d="M290.65,212.65c-3.77,6-14.37,10.37-26.87,10.37s-23.11-4.34-26.88-10.37h0c3.77-6,14.38-10.37,26.88-10.37s23.1,4.35,26.87,10.37Z"/><path class="cls-2" d="M292.09,208.49c0,.54,0,1.08,0,1.63,0,19.59-12.69,35.48-28.34,35.48s-28.34-15.89-28.34-35.48c0-.77,0-1.08,0-1.85"/><path class="cls-2" d="M235.67,215.05c-1.22-1.68-4.33-5.26-8.06-4-5.53,1.84-5.94,9.1-4.61,13.36,2.28,7.31,10,12.36,17.78,6.6"/><path class="cls-2" d="M235.94,219.41c-1-1.45-4.69-5.61-7.62-5.26-4,.47-3.11,7.25-2.19,10.28,1.56,5.15,7.82,8.73,12.73,4.23"/><path class="cls-2" d="M226,223.38a58,58,0,0,1,10.38-4.16"/><path class="cls-2" d="M291,220.05c12.4,4.26,20.48,11.23,20.48,19.1,0,13-22,23.5-49.07,23.5s-49.08-10.52-49.08-23.5c0-5.31,3.68-10.21,9.88-14.15"/><path class="cls-4" d="M355.63,174.15c-12.8,0-23.17,4.73-23.17,10.57v59.85c0,5.84,10.37,10.57,23.17,10.57s23.17-4.73,23.17-10.57V184.72C378.8,178.88,368.42,174.15,355.63,174.15Z"/><ellipse class="cls-2" cx="355.1" cy="159.43" rx="23.17" ry="10.56"/><path class="cls-2" d="M378.27,244.57c0,5.84-10.37,10.57-23.17,10.57s-23.17-4.73-23.17-10.57"/><path class="cls-5" d="M378.27,184.72c0,5.83-10.37,10.56-23.17,10.56s-23.17-4.73-23.17-10.56"/><path class="cls-2" d="M331.93,184.72c0-5.84,10.37-10.57,23.17-10.57s23.17,4.73,23.17,10.57"/><line class="cls-6" x1="378.27" y1="159.69" x2="378.27" y2="244.57"/><path class="cls-5" d="M360.63,211.48l-7-7.39a2.62,2.62,0,0,1,0-3.54l7-7.39a2.26,2.26,0,0,1,3.34,0l7,7.39a2.62,2.62,0,0,1,0,3.54l-7,7.39A2.26,2.26,0,0,1,360.63,211.48Z"/><path class="cls-5" d="M349.64,225.9l-9.83-.82a2.47,2.47,0,0,1-2.17-2.69l.77-10.42a2.41,2.41,0,0,1,2.54-2.3l9.83.81a2.47,2.47,0,0,1,2.17,2.7l-.78,10.42A2.41,2.41,0,0,1,349.64,225.9Z"/><path class="cls-5" d="M356.87,234.87l1.26-10.37a2.39,2.39,0,0,1,2.64-2.17l9.77,1.33a2.47,2.47,0,0,1,2,2.8l-1.25,10.37a2.38,2.38,0,0,1-2.64,2.16l-9.77-1.32A2.49,2.49,0,0,1,356.87,234.87Z"/><line class="cls-6" x1="331.93" y1="159.43" x2="331.93" y2="244.84"/><path class="cls-2" d="M264.08,146.21a.27.27,0,0,0-.44-.3c-2.28,2.21-7.75,8.27-8,14.33-.27,7.32,5.85,16.11,7.66,22.89,1.3,4.89-.66,11.68-2,15.52a.4.4,0,0,0,.71.36c2.17-3.19,5.55-8.84,6.2-14,1-7.73-8.43-17.72-7.55-26.91C261.06,153.81,263.12,148.5,264.08,146.21Z"/><path class="cls-2" d="M251.71,150.12a.19.19,0,0,0-.3-.21c-1.6,1.55-5.43,5.79-5.59,10-.18,5.13,4.1,11.29,5.37,16,.91,3.43-.46,8.19-1.43,10.87a.28.28,0,0,0,.5.26c1.52-2.24,3.89-6.2,4.34-9.81.68-5.41-5.9-12.42-5.29-18.85A33.17,33.17,0,0,1,251.71,150.12Z"/><path class="cls-2" d="M274.31,148.3a.19.19,0,0,0-.31-.21c-1.59,1.55-5.42,5.79-5.58,10-.18,5.13,4.1,11.28,5.37,16,.91,3.43-.46,8.18-1.43,10.87a.28.28,0,0,0,.49.25c1.53-2.23,3.89-6.19,4.35-9.8.68-5.42-5.91-12.42-5.29-18.85A32.91,32.91,0,0,1,274.31,148.3Z"/><path class="cls-2" d="M289.23,179.17c-.59,4.67-1.5,13.52-1,20.75"/><path class="cls-2" d="M300.25,170.65s5.28,4,15.84,2.64,11.88-4,11.88-4"/><path class="cls-2" d="M308.17,165.37s7.92,1.32,10.56-2.64"/><path class="cls-2" d="M279.12,194.41s0-14.52,9.25-13.2"/><path class="cls-2" d="M283,196.67c-.15-3.83.33-12.52,5.33-11.52"/><ellipse class="cls-2" cx="410.19" cy="202.99" rx="17.82" ry="4.62"/><g class="cls-7"><ellipse class="cls-3" cx="410.19" cy="204.97" rx="17.82" ry="4.62"/></g><path class="cls-2" d="M392.37,203s3.11,18.4,4.62,24.42c1,4,5.91,7.92,13.2,7.92s11.55-2.64,13.2-7.92C425.25,221.48,428,203,428,203"/><path class="cls-2" d="M426.86,210c1.27-1.18,3.05-2.22,5.06-1.55,4.51,1.5,4.84,7.42,3.76,10.89-1.62,5.17-6.55,8.94-12,6.81"/><path class="cls-2" d="M426.66,213.51a4.82,4.82,0,0,1,3.4-1.26c3.13.33,3.21,4.55,2.49,6.68a6.54,6.54,0,0,1-7.91,4.14"/><path class="cls-2" d="M432.59,224.35c2.84,2.13,4.5,4.69,4.5,7.44,0,7.43-12,13.45-26.9,13.45s-26.89-6-26.89-13.45c0-4.7,4.84-8.85,12.17-11.25"/><path class="cls-2" d="M425,221a30.09,30.09,0,0,1,3.42,1.63"/><line class="cls-2" x1="435.54" y1="219.7" x2="478.47" y2="219.7"/><line class="cls-2" x1="425.15" y1="219.7" x2="432.07" y2="219.7"/><line class="cls-2" x1="378.46" y1="219.7" x2="395.22" y2="219.7"/><line class="cls-2" x1="225.97" y1="219.7" x2="234.32" y2="219.7"/><line class="cls-2" x1="181.09" y1="219.7" x2="222.29" y2="219.7"/></g></svg>